<svg width="43" height="32" viewBox="0 0 43 32" fill="none" xmlns="http://www.w3.org/2000/svg">
<path d="M18.0695 30.2598C17.8518 30.2598 17.6387 30.3483 17.4849 30.502C17.3312 30.6558 17.2427 30.8693 17.2427 31.0866C17.2427 31.304 17.3312 31.5175 17.4849 31.6713C17.6387 31.825 17.8518 31.9135 18.0695 31.9135C18.2869 31.9135 18.5001 31.825 18.6542 31.6713C18.8079 31.5175 18.8964 31.305 18.8964 31.0866C18.8964 30.8693 18.8079 30.6558 18.6542 30.502C18.5001 30.3483 18.2869 30.2598 18.0695 30.2598Z" fill="black"/>
<path fill-rule="evenodd" clip-rule="evenodd" d="M34.5391 16.3776L32.6121 7.67183C33.1321 7.60142 33.5908 7.33689 33.9134 6.95381C34.2943 7.19186 34.7435 7.3301 35.2248 7.3301H36.8786C37.3353 7.3301 37.7054 6.95995 37.7054 6.50323V3.19574C37.7054 2.73902 37.3353 2.36886 36.8786 2.36886H35.2248C34.7293 2.36886 34.2674 2.5155 33.8795 2.76712C33.501 2.33915 32.9483 2.06848 32.3333 2.06848H27.4522C26.5753 2.06848 25.8246 2.61854 25.5258 3.39147H23.5659C22.3805 3.39147 21.416 4.35594 21.416 5.54134C21.416 6.72674 22.3805 7.69121 23.5659 7.69121H27.822V9.35756C27.822 9.81428 28.1922 10.1844 28.6489 10.1844C29.1056 10.1844 29.4758 9.81428 29.4758 9.35756V7.69121H30.9228L32.9984 17.0694L29.0701 24.0662C28.6408 24.8278 27.8314 25.301 26.957 25.301H17.1505C16.74 21.8582 13.8046 19.1796 10.2532 19.1796C8.68185 19.1796 7.19929 19.6915 5.96576 20.6599L5.96092 20.6638C4.49225 21.8188 3.56912 23.4764 3.35401 25.301H1.65568C1.76357 19.3566 6.63275 14.5543 12.6021 14.5543H18.4677C18.9306 14.5543 19.3075 14.9312 19.3075 15.3944V22.8204C19.3075 23.2771 19.6776 23.6473 20.1344 23.6473H24.5342C26.3291 23.6473 27.9832 22.6712 28.8508 21.1005C29.2523 20.3737 29.4651 19.5507 29.4658 18.7209L29.47 15.9738C29.4706 15.5171 29.1008 15.1463 28.6441 15.1457H28.6431C28.187 15.1457 27.8169 15.5152 27.8162 15.9713L27.812 18.719C27.8117 19.2707 27.6702 19.8178 27.4034 20.3007C26.8265 21.3446 25.7271 21.9932 24.5342 21.9932H20.9612V15.3941C20.9612 14.9706 20.8547 14.5714 20.6676 14.2216C21.4105 13.7923 21.9118 12.99 21.9118 12.0724C21.9118 10.7045 20.7988 9.59173 19.4312 9.59173H16.4131C16.1231 9.59173 15.845 9.64212 15.5862 9.73385V2.48062C15.5862 1.11273 14.4732 0 13.1056 0H7.77132C3.90439 0 0.688631 2.83915 0.0975453 6.54199C0.0726744 6.6208 0.0591085 6.70446 0.0591085 6.79134C0.0591085 6.79397 0.0592753 6.79651 0.0594393 6.79901C0.0595982 6.80143 0.0597545 6.80382 0.0597545 6.8062C0.0203489 7.12274 0 7.44477 0 7.77132V12.0727C0 13.3146 0.917636 14.3463 2.11047 14.5255L3.94154 16.3566C1.5155 18.655 0 21.905 0 25.5029V26.1279C0 26.5846 0.370155 26.9548 0.826873 26.9548H5.47384C5.46318 27.0081 5.45736 27.0636 5.45736 27.1202C5.45736 28.3201 5.90149 29.418 6.63275 30.2597H0.826873C0.370155 30.2597 0 30.6302 0 31.0866C0 31.5433 0.370155 31.9134 0.826873 31.9134H10.1576L10.1852 31.9144C10.2079 31.9152 10.2305 31.916 10.2532 31.916C12.8976 31.916 15.0491 29.7645 15.0491 27.1202C15.0491 27.0636 15.0433 27.0081 15.0326 26.9548H26.957C28.259 26.9548 29.4758 26.3307 30.2384 25.2985H31.2855C31.0501 25.8714 30.9251 26.489 30.9251 27.1202C30.9251 28.3201 31.3692 29.418 32.1005 30.2597H21.3773C20.9205 30.2597 20.5504 30.6302 20.5504 31.0866C20.5504 31.5433 20.9205 31.9134 21.3773 31.9134H35.6253C35.6573 31.9144 35.689 31.916 35.7209 31.916C38.3653 31.916 40.5168 29.7645 40.5168 27.1202C40.5168 26.489 40.3918 25.8714 40.1563 25.2985H41.509C41.9658 25.2985 42.3359 24.9283 42.3359 24.4716C42.3359 20.1069 38.8653 16.5375 34.5391 16.3776ZM16.4131 11.2458H19.4312C19.887 11.2458 20.2581 11.6166 20.2581 12.0727C20.2581 12.5284 19.887 12.8995 19.4312 12.8995H16.4131C15.957 12.8995 15.5862 12.5284 15.5862 12.0727C15.5862 11.6166 15.957 11.2458 16.4131 11.2458ZM1.65604 7.66963L1.65604 7.66964C1.65489 7.70352 1.65375 7.73735 1.65375 7.77132V12.0727C1.65375 12.5284 2.02455 12.8995 2.4803 12.8995H2.48094H13.1053C13.5614 12.8995 13.9322 12.5284 13.9322 12.0727V2.48094C13.9322 2.02487 13.5614 1.65407 13.1053 1.65407H7.77132C5.02681 1.65407 2.69897 3.47061 1.92636 5.96479H10.7057C11.1625 5.96479 11.5326 6.33495 11.5326 6.79167C11.5326 7.24838 11.1625 7.61854 10.7057 7.61854H1.65762L1.65604 7.66963ZM4.47707 14.5533H6.36919C5.9719 14.78 5.5885 15.0284 5.21964 15.2959L4.47707 14.5533ZM10.2852 30.2613C12.0029 30.2442 13.3953 28.8421 13.3953 27.1202C13.3953 27.0636 13.4012 27.0081 13.4118 26.9548H7.09464C7.1053 27.0081 7.11111 27.0636 7.11111 27.1202C7.11111 28.8207 8.46932 30.209 10.1579 30.2597H10.2532C10.2593 30.2597 10.2654 30.2601 10.2715 30.2605C10.2761 30.2609 10.2806 30.2612 10.2852 30.2613ZM5.02261 25.301C5.22739 23.9874 5.91731 22.8007 6.98288 21.9638C6.98547 21.9622 6.98773 21.9599 6.99031 21.9583C7.92894 21.2225 9.05717 20.8333 10.2532 20.8333C12.8915 20.8333 15.0849 22.7729 15.4832 25.301H5.02261ZM36.0517 4.02261H35.2248C34.7687 4.02261 34.3979 4.39373 34.3979 4.84948C34.3979 5.30556 34.7687 5.67636 35.2248 5.67636H36.0517V4.02261ZM23.0698 5.54134C23.0698 5.26776 23.2923 5.04522 23.5659 5.04522H25.3876V5.62661C25.3876 5.76744 25.4018 5.90472 25.4286 6.03747H23.5659C23.2923 6.03747 23.0698 5.81492 23.0698 5.54134ZM27.4522 6.03747H28.6489H32.3333C32.5598 6.03747 32.7442 5.85336 32.7442 5.62662V4.13308C32.7442 3.90665 32.5598 3.72222 32.3333 3.72222H27.4522C27.2258 3.72222 27.0413 3.90665 27.0413 4.13308V5.62662C27.0413 5.85336 27.2258 6.03747 27.4522 6.03747ZM38.863 27.1202C38.863 28.8421 37.4706 30.2442 35.7529 30.2613C35.7507 30.2612 35.7484 30.2611 35.7462 30.261C35.7438 30.2609 35.7415 30.2607 35.7392 30.2605C35.7331 30.2601 35.727 30.2597 35.7209 30.2597H35.6256C33.937 30.209 32.5788 28.8207 32.5788 27.1202C32.5788 26.4632 32.7836 25.8282 33.1609 25.2985H38.281C38.6583 25.8282 38.863 26.4632 38.863 27.1202ZM34.3563 18.0287L31.2032 23.6447H40.6292C40.2274 20.5184 37.5762 18.0879 34.3563 18.0287Z" fill="#495567"/>
<path d="M28.6488 13.4921C29.1055 13.4921 29.4757 13.122 29.4757 12.6653C29.4757 12.2085 29.1055 11.8384 28.6488 11.8384H28.6459C28.1892 11.8384 27.8203 12.2085 27.8203 12.6653C27.8203 13.122 28.1921 13.4921 28.6488 13.4921V13.4921Z" fill="black"/>
</svg>
